# File created by Blade
# Date/Time:  Thu Jan 22 19:08:58 2015
# Frame Rate: 120.000 fps
#------------------------------------------------------
:FULLY-SPECIFIED
:DEGREES
1487
root -2.932842 33.171165 0.987375 7.645560 -0.850334 2.710724
RightUpLeg -0.285121 -9.599804 -2.748054
RightLeg 2.869484 -0.000000 -0.000000
RightFoot -12.600051 -5.679019 5.014489
RightToeBase 2.067121 -0.000000 -0.000000
LeftUpLeg -1.744115 4.398803 3.858511
LeftLeg 6.220764 -0.000000 -0.000000
LeftFoot -10.689162 0.927991 -12.810934
LeftToeBase 3.563015 -0.000000 -0.000000
Spine -13.405499 -1.702598 -2.478459
RightShoulder 4.820970 17.281193 -29.127537
RightArm 75.798784 -14.281061 66.794381
RightForeArm -20.033506 0.000000 12.116973
RightHand 7.742970 0.000000 5.787172
RightHandThumb1 -24.326973 -0.000000 -32.862282
LeftShoulder -4.613201 -22.403713 32.939491
LeftArm 73.047382 19.151183 -67.759394
LeftForeArm 27.441665 -0.000000 6.547443
LeftHand -6.149682 0.000000 -8.123096
LeftHandThumb1 -26.253704 0.000000 33.147579
Head -2.694230 2.875253 -0.338944
1488
root -2.938636 33.182805 0.998885 7.663658 -0.862865 2.715836
RightUpLeg -0.291840 -9.553582 -2.751936
RightLeg 2.870155 -0.000000 -0.000000
RightFoot -12.480808 -5.678569 4.978973
RightToeBase 1.969869 -0.000000 -0.000000
LeftUpLeg -1.755407 4.386430 3.862379
LeftLeg 6.234771 -0.000000 -0.000000
LeftFoot -10.559983 0.945925 -12.828805
LeftToeBase 3.369339 -0.000000 -0.000000
Spine -13.422599 -1.637157 -2.511567
RightShoulder 4.800554 17.355423 -29.092789
RightArm 75.915295 -14.427087 66.418895
RightForeArm -19.626411 0.000000 12.187225
RightHand 7.661469 0.000000 5.683266
RightHandThumb1 -24.326973 -0.000000 -32.862282
LeftShoulder -4.567592 -22.450677 32.940168
LeftArm 73.088559 19.276167 -67.817440
LeftForeArm 27.753076 0.000000 6.478396
LeftHand -6.190298 -0.000000 -7.783238
LeftHandThumb1 -26.253704 0.000000 33.147579
Head -2.676076 2.842229 -0.290351
1489
root -2.946185 33.193885 1.009985 7.679783 -0.872303 2.704539
RightUpLeg -0.307650 -9.496738 -2.734743
RightLeg 2.893824 -0.000000 -0.000000
RightFoot -12.375181 -5.688893 4.955432
RightToeBase 1.838679 -0.000000 -0.000000
LeftUpLeg -1.763573 4.389240 3.885676
LeftLeg 6.247422 -0.000000 -0.000000
LeftFoot -10.452764 0.957016 -12.810466
LeftToeBase 3.280487 -0.000000 -0.000000
Spine -13.435732 -1.574691 -2.523765
RightShoulder 4.773207 17.413087 -29.083700
RightArm 76.045585 -14.576018 66.097357
RightForeArm -19.501783 -0.000000 12.208213
RightHand 7.685165 -0.000000 5.425932
RightHandThumb1 -24.326973 -0.000000 -32.862282
LeftShoulder -4.477317 -22.608183 32.921548
LeftArm 73.004376 19.413283 -67.849815
LeftForeArm 27.948966 -0.000000 6.523730
LeftHand -6.243743 -0.000000 -7.704239
LeftHandThumb1 -26.253704 0.000000 33.147579
Head -2.662504 2.845069 -0.227476
1490
root -2.954004 33.202019 1.021219 7.700773 -0.882318 2.687586
RightUpLeg -0.310133 -9.482252 -2.706858
RightLeg 2.877525 -0.000000 -0.000000
RightFoot -12.254293 -5.690300 4.885450
RightToeBase 1.677766 -0.000000 -0.000000
LeftUpLeg -1.773705 4.390674 3.912548
LeftLeg 6.265099 -0.000000 -0.000000
LeftFoot -10.351612 1.016006 -12.664604
LeftToeBase 3.022382 -0.000000 -0.000000
Spine -13.460928 -1.580917 -2.488542
RightShoulder 4.788612 17.469292 -29.136979
RightArm 76.136401 -14.626806 66.211706
RightForeArm -19.596317 -0.000000 12.139467
RightHand 8.176340 -0.000000 5.375181
RightHandThumb1 -24.326973 -0.000000 -32.862282
LeftShoulder -4.526608 -22.565208 32.904661
LeftArm 73.070729 19.515731 -67.829402
LeftForeArm 27.989368 0.000000 6.560501
LeftHand -6.322831 -0.000000 -7.616792
LeftHandThumb1 -26.253704 0.000000 33.147579
Head -2.657767 2.872411 -0.264554
1491
root -2.958493 33.209276 1.033326 7.706244 -0.898585 2.692708
RightUpLeg -0.298831 -9.424698 -2.705206
RightLeg 2.867565 -0.000000 -0.000000
RightFoot -12.176910 -5.743520 4.835545
RightToeBase 1.550776 -0.000000 -0.000000
LeftUpLeg -1.761999 4.357425 3.915893
LeftLeg 6.268362 -0.000000 -0.000000
LeftFoot -10.275334 1.046201 -12.679767
LeftToeBase 2.933945 -0.000000 -0.000000
Spine -13.480846 -1.568815 -2.484988
RightShoulder 4.776508 17.473558 -29.178430
RightArm 76.295226 -14.717300 66.157882
RightForeArm -19.623639 -0.000000 12.215785
RightHand 7.800342 -0.000000 5.435590
RightHandThumb1 -24.326973 -0.000000 -32.862282
LeftShoulder -4.513448 -22.566077 32.869658
LeftArm 73.106063 19.610144 -67.815419
LeftForeArm 28.017835 -0.000000 6.524623
LeftHand -6.297772 -0.000000 -7.424385
LeftHandThumb1 -26.253704 0.000000 33.147579
Head -2.613608 2.890014 -0.260300
1492
root -2.967161 33.215251 1.044611 7.713247 -0.910171 2.683046
RightUpLeg -0.284722 -9.396013 -2.684800
RightLeg 2.849180 -0.000000 -0.000000
RightFoot -12.092956 -5.746032 4.813476
RightToeBase 1.440593 -0.000000 -0.000000
LeftUpLeg -1.752320 4.352230 3.941157
LeftLeg 6.267289 -0.000000 -0.000000
LeftFoot -10.208070 1.052707 -12.716456
LeftToeBase 2.847383 -0.000000 -0.000000
Spine -13.497617 -1.544832 -2.480356
RightShoulder 4.399292 17.156061 -29.415049
RightArm 76.030340 -14.564236 67.151387
RightForeArm -18.428316 -0.000000 13.984520
RightHand 5.448143 -0.000000 8.727167
RightHandThumb1 -24.326973 -0.000000 -32.862282
LeftShoulder -4.511256 -22.517977 32.846362
LeftArm 73.176675 19.702869 -67.790260
LeftForeArm 27.999660 -0.000000 6.587525
LeftHand -6.435033 -0.000000 -7.369593
LeftHandThumb1 -26.253704 0.000000 33.147579
Head -2.590358 2.894082 -0.264580
1493
root -2.975274 33.220123 1.053813 7.729456 -0.930961 2.672924
RightUpLeg -0.283172 -9.360838 -2.662975
RightLeg 2.829515 -0.000000 -0.000000
RightFoot -12.028054 -5.766197 4.760114
RightToeBase 1.402934 -0.000000 -0.000000
LeftUpLeg -1.752577 4.350449 3.963939
LeftLeg 6.273103 -0.000000 -0.000000
LeftFoot -10.160991 1.067111 -12.743994
LeftToeBase 2.771975 -0.000000 -0.000000
Spine -13.539350 -1.575236 -2.428994
RightShoulder 4.153969 16.932478 -29.691729
RightArm 75.540104 -14.362469 68.535086
RightForeArm -17.452829 -0.000000 15.871098
RightHand 2.674337 0.000000 11.898197
RightHandThumb1 -24.326973 -0.000000 -32.862282
LeftShoulder -4.505585 -22.492742 32.757884
LeftArm 73.226504 19.818747 -67.639934
LeftForeArm 27.937780 -0.000000 6.555963
LeftHand -6.720039 -0.000000 -7.226283
LeftHandThumb1 -26.253704 0.000000 33.147579
Head -2.520600 2.952940 -0.345981
